<svg width="480" height="480" viewBox="0 0 480 480" fill="none" xmlns="http://www.w3.org/2000/svg">
<rect width="480" height="480" fill="#D5FF40"/>
<path d="M90 251.284V248.314C90 245.647 91.2124 243.444 93.6371 241.706L128.129 217.277C129.543 216.348 130.776 216.166 131.827 216.732C132.918 217.257 133.463 218.267 133.463 219.762V230.189C133.463 233.179 131.685 235.907 128.129 238.372L112.004 249.769L128.129 261.226C131.685 263.691 133.463 266.419 133.463 269.409V279.835C133.463 281.331 132.918 282.341 131.827 282.866C130.776 283.392 129.543 283.21 128.129 282.321L93.6371 257.831C91.2124 256.134 90 253.951 90 251.284ZM140.01 201.092C139.808 200.607 139.707 200.061 139.707 199.455C139.707 198.809 140.051 198.081 140.738 197.273C141.465 196.424 142.536 196 143.95 196H157.226C158.802 196 160.257 196.546 161.59 197.637C162.924 198.728 163.874 200.102 164.439 201.759L180.443 249.769L195.234 201.759C196.405 197.92 198.811 196 202.448 196H213.601C217.239 196 219.643 197.92 220.815 201.759L235.605 249.769L251.609 201.759C252.174 200.102 253.125 198.728 254.457 197.637C255.792 196.546 257.247 196 258.822 196H272.098C273.472 196 274.502 196.424 275.19 197.273C275.917 198.081 276.28 198.809 276.28 199.455C276.28 200.061 276.199 200.607 276.037 201.092L249.003 276.744C247.507 280.866 244.597 282.927 240.273 282.927H231.483C226.998 282.927 224.108 280.866 222.815 276.744L208.025 230.068L193.234 276.744C191.899 280.866 189.01 282.927 184.565 282.927H175.714C171.431 282.927 168.541 280.866 167.046 276.744L140.01 201.092ZM280.524 282.927C278.544 282.927 277.553 281.977 277.553 280.078C277.553 279.148 277.837 278.199 278.402 277.229L317.804 201.759C319.703 197.92 323.219 196 328.352 196H338.535C340.516 196 341.505 196.97 341.505 198.91C341.505 199.799 341.203 200.748 340.596 201.759L301.255 277.229C299.356 281.028 295.84 282.927 290.708 282.927H280.524ZM346.537 279.835V269.409C346.537 266.419 348.315 263.691 351.871 261.226L367.996 249.769L351.871 238.372C348.315 235.907 346.537 233.179 346.537 230.189V219.762C346.537 218.267 347.082 217.237 348.174 216.671C348.578 216.469 349.063 216.368 349.629 216.368C350.234 216.368 350.982 216.671 351.871 217.277L386.363 241.706C388.748 243.444 389.96 245.647 390 248.314V251.284C390 253.951 388.788 256.134 386.363 257.831L351.871 282.321C350.982 282.887 350.234 283.169 349.629 283.169C349.022 283.169 348.537 283.068 348.174 282.866C347.082 282.341 346.537 281.331 346.537 279.835Z" fill="#121011"/>
</svg>
